#!OML:ASF I:\Actors\actors\Patient Classification 2\Patient 1\Session 1\actor1.ASF
:FULLY-SPECIFIED
:DEGREES
740
root -1.04388 18.1659 5.78046 -1.41183 2.28047 -4.88987
lowerback 4.71914 1.71936 3.73617
upperback 1.38829 2.48777 1.50825
thorax -1.12403 1.23978 -0.680696
lowerneck -8.1415 3.72447 1.04329
upperneck 33.8271 9.89589 -12.9355
head 13.5909 3.0003 -3.94887
rclavicle -4.17921e-014 6.73383e-015
rhumerus -19.9667 42.8204 -85.3765
rradius 109.934
rwrist -4.11192
rhand -25.8335 -37.5672
rfingers 7.12502
rthumb 0.706543 -427.546
lclavicle -4.17921e-014 6.73383e-015
lhumerus -20.3346 -19.958 100.446
lradius 98.411
lwrist 79.7873
lhand -16.0839 -12.487
lfingers 7.12502
lthumb 10.1192 17.2497
rfemur 0 0 0
rtibia 0
rfoot 0 0
rtoes 0
lfemur 18.7585 -6.74321 -11.878
ltibia -19.7844
lfoot -1.24465 18.7759
ltoes -13.0781
741
root -1.0428 18.166 5.78098 -1.40015 2.31856 -4.90989
lowerback 4.73213 1.69258 3.77639
upperback 1.36917 2.45504 1.48961
thorax -1.14965 1.2228 -0.72137
lowerneck -8.08638 3.70305 1.01547
upperneck 33.7828 9.82913 -12.8528
head 13.5431 2.98069 -3.91774
rclavicle 1.084e-015 -1.05107e-014
rhumerus -20.2381 43.1807 -85.3812
rradius 110.102
rwrist -4.25818
rhand -25.7057 -37.4708
rfingers 7.12502
rthumb 0.830024 -427.449
lclavicle 1.084e-015 -1.05107e-014
lhumerus -20.3233 -19.975 100.395
lradius 98.3774
lwrist 79.7926
lhand -16.11 -12.5552
lfingers 7.12502
lthumb 10.094 17.1827
rfemur 0 0 0
rtibia 0
rfoot 0 0
rtoes 0
lfemur 18.7322 -6.63752 -11.8402
ltibia -19.7962
lfoot -1.13879 18.6577
ltoes -13.3731
742
root -1.04168 18.1662 5.78094 -1.39968 2.37205 -4.92942
lowerback 4.74225 1.65474 3.77725
upperback 1.36183 2.40551 1.48981
thorax -1.16479 1.19775 -0.719574
lowerneck -8.042 3.68466 1.07417
upperneck 33.7562 9.79503 -12.894
head 13.523 2.97087 -3.94962
rclavicle -4.69054e-014 -1.9133e-014
rhumerus -20.3905 43.4062 -85.3815
rradius 110.248
rwrist -4.36292
rhand -25.4941 -37.6067
rfingers 7.12502
rthumb 1.03438 -427.584
lclavicle -4.69054e-014 -1.9133e-014
lhumerus -20.289 -19.8883 100.397
lradius 98.3401
lwrist 79.8084
lhand -16.1747 -12.6517
lfingers 7.12502
lthumb 10.0316 17.0892
rfemur 0 0 0
rtibia 0
rfoot 0 0
rtoes 0
lfemur 18.7214 -6.56531 -11.8033
ltibia -19.823
lfoot -1.09439 18.532
ltoes -13.4746
743
root -1.04075 18.1666 5.78111 -1.40221 2.41176 -4.92327
lowerback 4.73801 1.62546 3.70762
upperback 1.38292 2.36264 1.50853
thorax -1.14609 1.17694 -0.658793
lowerneck -8.05042 3.64708 1.13529
upperneck 33.7113 9.75184 -12.996
head 13.5106 2.94879 -4.00665
rclavicle -1.06163e-014 5.59082e-015
rhumerus -20.416 43.4696 -85.3814
rradius 110.326
rwrist -4.41044
rhand -25.4745 -37.738
rfingers 7.12502
rthumb 1.05329 -427.715
lclavicle -1.06163e-014 5.59082e-015
lhumerus -20.1788 -19.7366 100.425
lradius 98.3175
lwrist 79.8491
lhand -16.257 -12.6414
lfingers 7.12502
lthumb 9.95219 17.1033
rfemur 0 0 0
rtibia 0
rfoot 0 0
rtoes 0
lfemur 18.728 -6.49775 -11.7982
ltibia -19.8638
lfoot -1.06545 18.423
ltoes -13.4826
744
root -1.0404 18.1666 5.78179 -1.41042 2.41193 -4.95039
lowerback 4.74714 1.61401 3.69618
upperback 1.40534 2.34702 1.53814
thorax -1.13044 1.16962 -0.621094
lowerneck -8.11049 3.60801 1.07537
upperneck 33.7167 9.70782 -12.9948
head 13.5191 2.91879 -4.00111
rclavicle 7.87218e-015 -7.40473e-015
rhumerus -20.4274 43.3836 -85.413
rradius 110.344
rwrist -4.44793
rhand -25.6993 -37.7523
rfingers 7.12502
rthumb 0.836177 -427.73
lclavicle 7.87218e-015 -7.40473e-015
lhumerus -20.0648 -19.6091 100.488
lradius 98.297
lwrist 79.874
lhand -16.3899 -12.6002
lfingers 7.12502
lthumb 9.82395 17.1507
rfemur 0 0 0
rtibia 0
rfoot 0 0
rtoes 0
lfemur 18.7598 -6.52837 -11.7745
ltibia -19.9004
lfoot -1.05758 18.4605
ltoes -13.4663
745
root -1.0403 18.1667 5.78239 -1.39888 2.37616 -5.00563
lowerback 4.74877 1.60547 3.7444
upperback 1.40573 2.33832 1.56149
thorax -1.13029 1.16523 -0.623592
lowerneck -8.18481 3.60975 0.989547
upperneck 33.8142 9.71911 -12.9129
head 13.5711 2.91481 -3.95435
rclavicle -2.10572e-014 -1.64991e-014
rhumerus -20.4063 43.2325 -85.4817
rradius 110.32
rwrist -4.49594
rhand -25.8751 -37.7625
rfingers 7.12502
rthumb 0.66635 -427.741
lclavicle -2.10572e-014 -1.64991e-014
lhumerus -20.0238 -19.5038 100.545
lradius 98.2833
lwrist 79.8765
lhand -16.4628 -12.6368
lfingers 7.12502
lthumb 9.75369 17.1174
rfemur 0 0 0
rtibia 0
rfoot 0 0
rtoes 0
lfemur 18.7719 -6.60238 -11.7248
ltibia -19.9175
lfoot -1.08629 18.5724
ltoes -13.3586
746
root -1.03914 18.1667 5.78342 -1.38925 2.32809 -5.02538
lowerback 4.72951 1.59528 3.76176
upperback 1.40744 2.32473 1.57666
thorax -1.11821 1.15863 -0.616332
lowerneck -8.2261 3.63606 0.965761
upperneck 33.9132 9.77013 -12.8807
head 13.6273 2.93179 -3.93422
rclavicle 5.57529e-016 -1.54555e-014
rhumerus -20.3066 43.073 -85.5327
rradius 110.273
rwrist -4.47731
rhand -25.8368 -37.7969
rfingers 7.12502
rthumb 0.703378 -427.776
lclavicle 5.57529e-016 -1.54555e-014
lhumerus -20.0541 -19.4283 100.576
lradius 98.2969
lwrist 79.9041
lhand -16.4529 -12.7444
lfingers 7.12502
lthumb 9.76323 17.0093
rfemur 0 0 0
rtibia 0
rfoot 0 0
rtoes 0
lfemur 18.7743 -6.56635 -11.706
ltibia -19.9176
lfoot -1.07598 18.5841
ltoes -13.4882
747
root -1.03819 18.1659 5.78589 -1.38624 2.24648 -5.00626
lowerback 4.68587 1.60334 3.74785
upperback 1.42158 2.33204 1.57845
thorax -1.07967 1.16304 -0.605395
lowerneck -8.19527 3.64679 0.991295
upperneck 33.916 9.79697 -12.9318
head 13.6299 2.94186 -3.9569
rclavicle -4.15817e-015 -5.35476e-015
rhumerus -20.1711 42.8962 -85.5559
rradius 110.2
rwrist -4.48373
rhand -25.7229 -37.7627
rfingers 7.12502
rthumb 0.813351 -427.741
lclavicle -4.15817e-015 -5.35476e-015
lhumerus -20.0907 -19.4278 100.586
lradius 98.3185
lwrist 79.9366
lhand -16.4393 -12.8577
lfingers 7.12502
lthumb 9.77634 16.8954
rfemur 0 0 0
rtibia 0
rfoot 0 0
rtoes 0
lfemur 18.7966 -6.52026 -11.7359
ltibia -19.9053
lfoot -1.10692 18.6044
ltoes -13.603
748
root -1.03794 18.165 5.78852 -1.37401 2.12949 -4.9845
lowerback 4.64517 1.63329 3.76696
upperback 1.43099 2.36985 1.54893
thorax -1.04379 1.1826 -0.646673
lowerneck -8.14353 3.64446 1.04286
upperneck 33.8791 9.78521 -12.9668
head 13.6051 2.94269 -3.98127
rclavicle 6.80139e-015 -2.26118e-015
rhumerus -20.0731 42.7255 -85.6098
rradius 110.122
rwrist -4.55578
rhand -25.6511 -37.6897
rfingers 7.12502
rthumb 0.88271 -427.668
lclavicle 6.80139e-015 -2.26118e-015
lhumerus -20.1188 -19.5087 100.547
lradius 98.3522
lwrist 79.9051
lhand -16.3849 -12.7927
lfingers 7.12502
lthumb 9.82884 16.9579
rfemur 0 0 0
rtibia 0
rfoot 0 0
rtoes 0
lfemur 18.8251 -6.58534 -11.7839
ltibia -19.8838
lfoot -1.2324 18.7703
ltoes -13.239
749
root -1.0369 18.165 5.78968 -1.35495 2.03158 -4.97593
lowerback 4.6445 1.66313 3.79748
upperback 1.41217 2.41119 1.52506
thorax -1.05887 1.20279 -0.690587
lowerneck -8.12249 3.64746 1.07673
upperneck 33.8877 9.77689 -12.9505
head 13.6033 2.94573 -3.98258
rclavicle -2.64477e-015 6.93262e-015
rhumerus -20.0436 42.6268 -85.6629
rradius 110.085
rwrist -4.5937
rhand -25.6075 -37.7221
rfingers 7.12502
rthumb 0.92486 -427.7
lclavicle -2.64477e-015 6.93262e-015
lhumerus -20.176 -19.6012 100.528
lradius 98.3549
lwrist 79.7979
lhand -16.2206 -12.5921
lfingers 7.12502
lthumb 9.98738 17.1509
rfemur 0 0 0
rtibia 0
rfoot 0 0
rtoes 0
lfemur 18.8306 -6.64328 -11.8135
ltibia -19.8549
lfoot -1.32991 18.9246
ltoes -12.9102
750
root -1.0352 18.1665 5.78994 -1.32334 1.96772 -4.95761
lowerback 4.65527 1.68874 3.80124
upperback 1.38209 2.44687 1.51343
thorax -1.09376 1.2197 -0.707407
lowerneck -8.15053 3.64614 1.04269
upperneck 33.9299 9.75717 -12.8555
head 13.6174 2.94087 -3.94167
rclavicle 1.824e-014 1.55052e-014
rhumerus -20.0221 42.571 -85.6738
rradius 110.079
rwrist -4.61121
rhand -25.6305 -37.7811
rfingers 7.12502
rthumb 0.902644 -427.759
lclavicle 1.824e-014 1.55052e-014
lhumerus -20.2107 -19.703 100.538
lradius 98.3164
lwrist 79.7105
lhand -16.1021 -12.481
lfingers 7.12502
lthumb 10.1016 17.2565
rfemur 0 0 0
rtibia 0
rfoot 0 0
rtoes 0
lfemur 18.8059 -6.60289 -11.8369
ltibia -19.8356
lfoot -1.32973 18.9541
ltoes -13.0592
751
root -1.03344 18.1682 5.79027 -1.28756 1.93923 -4.91797
lowerback 4.64363 1.70653 3.78258
upperback 1.37162 2.46909 1.49001
thorax -1.09691 1.23065 -0.721963
lowerneck -8.17248 3.63166 1.03807
upperneck 33.9122 9.70912 -12.7854
head 13.6031 2.92707 -3.91733
rclavicle -1.91951e-015 -1.09332e-015
rhumerus -19.9409 42.5332 -85.632
rradius 110.081
rwrist -4.63577
rhand -25.6694 -37.8197
rfingers 7.12502
rthumb 0.865084 -427.798
lclavicle -1.91951e-015 -1.09332e-015
lhumerus -20.1726 -19.8478 100.507
lradius 98.2999
lwrist 79.7024
lhand -16.183 -12.4611
lfingers 7.12502
lthumb 10.0236 17.2802
rfemur 0 0 0
rtibia 0
rfoot 0 0
rtoes 0
lfemur 18.7735 -6.49917 -11.8737
ltibia -19.8403
lfoot -1.25366 18.8844
ltoes -13.4654
752
root -1.03238 18.1686 5.79076 -1.26912 1.92016 -4.90533
lowerback 4.6234 1.70824 3.76859
upperback 1.38192 2.46927 1.48727
thorax -1.07549 1.23121 -0.716061
lowerneck -8.16719 3.62261 1.08851
upperneck 33.8343 9.68576 -12.8297
head 13.5697 2.92127 -3.94407
rclavicle -2.80411e-014 4.24902e-015
rhumerus -19.8407 42.5784 -85.5593
rradius 110.108
rwrist -4.63974
rhand -25.6315 -37.9209
rfingers 7.12502
rthumb 0.901667 -427.899
lclavicle -2.80411e-014 4.24902e-015
lhumerus -20.1015 -19.9307 100.459
lradius 98.3005
lwrist 79.744
lhand -16.2675 -12.4163
lfingers 7.12502
lthumb 9.94213 17.329
rfemur 0 0 0
rtibia 0
rfoot 0 0
rtoes 0
lfemur 18.7612 -6.42791 -11.8839
ltibia -19.8468
lfoot -1.20369 18.8228
ltoes -13.5725
753
root -1.03246 18.1684 5.79132 -1.26338 1.89761 -4.92716
lowerback 4.60859 1.70144 3.76725
upperback 1.39439 2.45925 1.50726
thorax -1.05574 1.22665 -0.693542
lowerneck -8.19467 3.62563 1.09192
upperneck 33.7972 9.68599 -12.8373
head 13.5598 2.92096 -3.94545
rclavicle -8.86921e-015 2.01269e-015
rhumerus -19.7835 42.6913 -85.5162
rradius 110.152
rwrist -4.63891
rhand -25.5672 -38.0375
rfingers 7.12502
rthumb 0.963771 -428.015
lclavicle -8.86921e-015 2.01269e-015
lhumerus -20.0608 -19.9095 100.444
lradius 98.3
lwrist 79.782
lhand -16.2498 -12.3574
lfingers 7.12502
lthumb 9.95913 17.387
rfemur 0 0 0
rtibia 0
rfoot 0 0
rtoes 0
lfemur 18.7623 -6.48249 -11.8655
ltibia -19.8413
lfoot -1.25835 18.8961
ltoes -13.1451
754
root -1.03251 18.1684 5.79256 -1.2557 1.87971 -4.92601
lowerback 4.58325 1.70535 3.75457
upperback 1.39961 2.46244 1.51091
thorax -1.03681 1.22861 -0.681898
lowerneck -8.23591 3.61999 1.08256
upperneck 33.7996 9.66591 -12.7943
head 13.5641 2.91395 -3.92838
rclavicle -1.52288e-014 -1.02871e-014
rhumerus -19.7708 42.7697 -85.5029
rradius 110.192
rwrist -4.65396
rhand -25.502 -38.0824
rfingers 7.12502
rthumb 1.02671 -428.06
lclavicle -1.52288e-014 -1.02871e-014
lhumerus -20.0469 -19.8817 100.456
lradius 98.2937
lwrist 79.7866
lhand -16.2608 -12.35
lfingers 7.12502
lthumb 9.94858 17.3949
rfemur 0 0 0
rtibia 0
rfoot 0 0
rtoes 0
lfemur 18.7597 -6.53326 -11.8701
ltibia -19.8399
lfoot -1.31803 18.9794
ltoes -12.8938
